<?xml version="1.0" encoding="UTF-8" standalone="no"?>
<!-- Created with Inkscape (http://www.inkscape.org/) -->

<svg
   xmlns:dc="http://purl.org/dc/elements/1.1/"
   xmlns:cc="http://creativecommons.org/ns#"
   xmlns:rdf="http://www.w3.org/1999/02/22-rdf-syntax-ns#"
   xmlns:svg="http://www.w3.org/2000/svg"
   xmlns="http://www.w3.org/2000/svg"
   xmlns:xlink="http://www.w3.org/1999/xlink"
   xmlns:sodipodi="http://sodipodi.sourceforge.net/DTD/sodipodi-0.dtd"
   xmlns:inkscape="http://www.inkscape.org/namespaces/inkscape"
   width="744.09448819"
   height="1052.3622047"
   id="svg2"
   version="1.1"
   inkscape:version="0.48.3.1 r9886"
   inkscape:export-filename="/home/xavier/workspace/android/xavier-model-generator/res/drawable-ldpi/modelr.png"
   inkscape:export-xdpi="31.653721"
   inkscape:export-ydpi="31.653721"
   sodipodi:docname="New document 1">
  <defs
     id="defs4">
    <inkscape:perspective
       sodipodi:type="inkscape:persp3d"
       inkscape:vp_x="113.96562 : 551.70176 : 1"
       inkscape:vp_y="0 : 1000 : 0"
       inkscape:vp_z="712.77315 : 520.84708 : 1"
       inkscape:persp3d-origin="372.04724 : 350.78739 : 1"
       id="perspective3049" />
    <linearGradient
       gradientUnits="userSpaceOnUse"
       gradientTransform="matrix(0.93933676,0,0,1.0645809,-35.093319,-1.93448)"
       spreadMethod="reflect"
       y2="66.901183"
       x2="363.25004"
       y1="53.695637"
       x1="337.9031"
       id="linearGradient661"
       xlink:href="#linearGradient662" />
    <linearGradient
       id="linearGradient662">
      <stop
         stop-color="#ffffff"
         stop-opacity="0.5294"
         id="stop663"
         offset="0" />
      <stop
         stop-color="#ffffff"
         stop-opacity="0"
         id="stop664"
         offset="1" />
    </linearGradient>
    <radialGradient
       gradientUnits="userSpaceOnUse"
       gradientTransform="matrix(0.91596309,0,0,1.0917471,-35.093319,-1.93448)"
       fy="193.36812"
       fx="369.28015"
       r="32.630065"
       cy="193.36812"
       cx="369.28015"
       id="radialGradient659"
       xlink:href="#linearGradient653" />
    <linearGradient
       id="linearGradient653">
      <stop
         stop-color="#ffffff"
         id="stop654"
         offset="0" />
      <stop
         stop-color="#ffffff"
         stop-opacity="0.2275"
         id="stop655"
         offset="1" />
    </linearGradient>
    <linearGradient
       gradientUnits="userSpaceOnUse"
       gradientTransform="matrix(0.88374504,0,0,1.1315481,-35.093319,-1.93448)"
       y2="228.79406"
       x2="296.15043"
       y1="228.79406"
       x1="182.38007"
       id="linearGradient625"
       xlink:href="#linearGradient628" />
    <linearGradient
       id="linearGradient628">
      <stop
         stop-color="#ffff4f"
         id="stop629"
         offset="0" />
      <stop
         stop-color="#6f5545"
         stop-opacity="0"
         id="stop630"
         offset="1" />
    </linearGradient>
    <radialGradient
       gradientUnits="userSpaceOnUse"
       gradientTransform="matrix(0.70201354,0,0,1.4244739,-35.093319,-1.93448)"
       fy="383.89591"
       fx="265.83594"
       r="227.59806"
       cy="383.89591"
       cx="265.83594"
       id="radialGradient617"
       xlink:href="#linearGradient622" />
    <linearGradient
       id="linearGradient622">
      <stop
         stop-color="#000000"
         stop-opacity="0.1569"
         id="stop623"
         offset="0" />
      <stop
         stop-color="#ffffb2"
         id="stop624"
         offset="1" />
    </linearGradient>
    <linearGradient
       gradientUnits="userSpaceOnUse"
       gradientTransform="matrix(0.53623673,0,0,1.864848,-35.093319,-1.93448)"
       y2="324.00391"
       x2="300.47085"
       y1="268.80264"
       x1="72.789807"
       id="linearGradient610"
       xlink:href="#linearGradient607" />
    <linearGradient
       id="linearGradient607">
      <stop
         stop-color="#ffff4f"
         id="stop608"
         offset="0" />
      <stop
         stop-color="#6f5545"
         id="stop609"
         offset="1" />
    </linearGradient>
    <linearGradient
       gradientUnits="userSpaceOnUse"
       gradientTransform="matrix(0.72070294,0,0,1.3875342,-35.093319,-1.93448)"
       spreadMethod="pad"
       y2="362.01449"
       x2="255.55565"
       y1="310.69048"
       x1="198.57639"
       id="linearGradient611"
       xlink:href="#linearGradient607" />
    <linearGradient
       id="linearGradient3416">
      <stop
         stop-color="#ffff4f"
         id="stop3418"
         offset="0" />
      <stop
         stop-color="#6f5545"
         id="stop3420"
         offset="1" />
    </linearGradient>
    <linearGradient
       gradientUnits="objectBoundingBox"
       y2="0.61831999"
       x2="0.55072403"
       y1="0.31297401"
       x1="-0.014494"
       id="linearGradient618"
       xlink:href="#linearGradient619" />
    <linearGradient
       id="linearGradient619">
      <stop
         stop-color="#fffffd"
         id="stop620"
         offset="0" />
      <stop
         stop-color="#ffff4f"
         id="stop621"
         offset="1" />
    </linearGradient>
    <linearGradient
       inkscape:collect="always"
       xlink:href="#linearGradient619"
       id="linearGradient3663"
       gradientUnits="userSpaceOnUse"
       gradientTransform="matrix(0.71645332,0,0,1.3957643,530,149.8425)"
       x1="44.110581"
       y1="256.76835"
       x2="274.91127"
       y2="381.45309" />
    <linearGradient
       inkscape:collect="always"
       xlink:href="#linearGradient607"
       id="linearGradient3665"
       gradientUnits="userSpaceOnUse"
       gradientTransform="matrix(0.72070294,0,0,1.3875342,530,149.8425)"
       spreadMethod="pad"
       x1="198.57639"
       y1="310.69048"
       x2="255.55565"
       y2="362.01449" />
    <linearGradient
       inkscape:collect="always"
       xlink:href="#linearGradient607"
       id="linearGradient3667"
       gradientUnits="userSpaceOnUse"
       gradientTransform="matrix(0.53623673,0,0,1.864848,530,149.8425)"
       x1="72.789807"
       y1="268.80264"
       x2="300.47085"
       y2="324.00391" />
    <radialGradient
       inkscape:collect="always"
       xlink:href="#linearGradient622"
       id="radialGradient3669"
       gradientUnits="userSpaceOnUse"
       gradientTransform="matrix(0.70201354,0,0,1.4244739,530,149.8425)"
       cx="265.83594"
       cy="383.89591"
       fx="265.83594"
       fy="383.89591"
       r="227.59806" />
    <linearGradient
       inkscape:collect="always"
       xlink:href="#linearGradient628"
       id="linearGradient3671"
       gradientUnits="userSpaceOnUse"
       gradientTransform="matrix(0.88374504,0,0,1.1315481,530,149.8425)"
       x1="182.38007"
       y1="228.79406"
       x2="296.15043"
       y2="228.79406" />
    <radialGradient
       inkscape:collect="always"
       xlink:href="#linearGradient653"
       id="radialGradient3673"
       gradientUnits="userSpaceOnUse"
       gradientTransform="matrix(0.91596309,0,0,1.0917471,530,149.8425)"
       cx="369.28015"
       cy="193.36812"
       fx="369.28015"
       fy="193.36812"
       r="32.630065" />
    <linearGradient
       inkscape:collect="always"
       xlink:href="#linearGradient662"
       id="linearGradient3675"
       gradientUnits="userSpaceOnUse"
       gradientTransform="matrix(0.93933676,0,0,1.0645809,530,149.8425)"
       spreadMethod="reflect"
       x1="337.9031"
       y1="53.695637"
       x2="363.25004"
       y2="66.901183" />
  </defs>
  <sodipodi:namedview
     id="base"
     pagecolor="#ffffff"
     bordercolor="#666666"
     borderopacity="1.0"
     inkscape:pageopacity="0.0"
     inkscape:pageshadow="2"
     inkscape:zoom="3.09"
     inkscape:cx="380.5"
     inkscape:cy="468.14563"
     inkscape:document-units="px"
     inkscape:current-layer="layer1"
     showgrid="true"
     inkscape:window-width="1366"
     inkscape:window-height="744"
     inkscape:window-x="0"
     inkscape:window-y="24"
     inkscape:window-maximized="1">
    <inkscape:grid
       type="xygrid"
       id="grid3121" />
  </sodipodi:namedview>
  <metadata
     id="metadata7">
    <rdf:RDF>
      <cc:Work
         rdf:about="">
        <dc:format>image/svg+xml</dc:format>
        <dc:type
           rdf:resource="http://purl.org/dc/dcmitype/StillImage" />
        <dc:title></dc:title>
      </cc:Work>
    </rdf:RDF>
  </metadata>
  <g
     inkscape:label="Layer 1"
     inkscape:groupmode="layer"
     id="layer1">
    <g
       sodipodi:type="inkscape:box3d"
       style="fill:#1e8a00;fill-opacity:1;stroke:none"
       id="g3193"
       inkscape:perspectiveID="#perspective3049"
       inkscape:corner0="0.33239013 : 0.12890902 : 0 : 1"
       inkscape:corner7="0.093406901 : 0.035042619 : 0.21669503 : 1">
      <path
         sodipodi:type="inkscape:box3dside"
         id="path3203"
         style="fill:#afafde;fill-rule:evenodd;stroke:none"
         inkscape:box3dsidetype="13"
         d="M 307.66386,625.1523 350,652.36218 410.00383,632.37369 364.3329,612.05379 z" />
      <path
         sodipodi:type="inkscape:box3dside"
         id="path3195"
         style="fill:#353564;fill-rule:evenodd;stroke:none"
         inkscape:box3dsidetype="6"
         d="m 307.66386,554.70266 0,70.44964 56.66904,-13.09851 0,-60.59474 z" />
      <path
         sodipodi:type="inkscape:box3dside"
         id="path3205"
         style="fill:#e9e9ff;fill-rule:evenodd;stroke:none"
         inkscape:box3dsidetype="11"
         d="m 364.3329,551.45905 45.67093,9.26647 0,71.64817 -45.67093,-20.3199 z" />
      <path
         sodipodi:type="inkscape:box3dside"
         id="path3197"
         style="fill:#4d4d9f;fill-rule:evenodd;stroke:none"
         inkscape:box3dsidetype="5"
         d="M 307.66386,554.70266 350,566.51454 l 60.00383,-5.78902 -45.67093,-9.26647 z" />
      <path
         sodipodi:type="inkscape:box3dside"
         id="path3201"
         style="fill:#d7d7ff;fill-rule:evenodd;stroke:none"
         inkscape:box3dsidetype="14"
         d="m 350,566.51454 0,85.84764 60.00383,-19.98849 0,-71.64817 z" />
      <path
         sodipodi:type="inkscape:box3dside"
         id="path3199"
         style="fill:#8686bf;fill-rule:evenodd;stroke:none"
         inkscape:box3dsidetype="3"
         d="M 307.66386,554.70266 350,566.51454 l 0,85.84764 -42.33614,-27.20988 z" />
    </g>
    <g
       id="g3650"
       transform="matrix(0.13020487,0,0,0.13020487,276.25932,530.24243)">
      <path
         d="m 566.34348,899.27982 44.8547,-239.80054 c 0,0 89.7096,-172.51837 106.9614,-210.47247 17.2518,-37.95401 36.22891,-101.7858 43.1296,-108.68662 6.90079,-6.90079 39.67929,-15.52649 56.9311,-5.17551 24.15258,10.3512 39.67919,36.22892 39.67919,43.12961 -3.45028,17.2518 -48.30508,67.2822 -82.8088,193.22061 -18.97699,60.38141 -8.62589,127.66358 -8.62589,127.66358 0,0 -62.10661,8.62591 -93.15991,37.95404 -48.30509,41.40448 -106.96139,163.89246 -106.96139,162.1673 l 0,0 0,0 0,0 z"
         id="path605"
         inkscape:connector-curvature="0"
         style="fill:url(#linearGradient3663);fill-rule:evenodd;stroke:#000000" />
      <path
         d="m 823.59528,337.97189 c 21.0625,11.4375 34.3125,33.9375 34.3125,40.3125 -3.4375,17.25 -48.3125,67.25 -82.8125,193.1875 -19,60.375 -8.625,127.6875 -8.625,127.6875 0,0 -62.125,8.625 -93.1875,37.9375 -48.3125,41.4375 -106.9375,163.9375 -106.9375,162.1875 l 0,0 0,0 0,0 0,0 L 685.38197,602.4628 823.59528,337.97189"
         id="path777"
         inkscape:connector-curvature="0"
         style="fill:url(#linearGradient3665);fill-rule:evenodd" />
      <path
         d="m 1010.9078,189.5344 c -35.75002,78.6875 -75.87502,148.43749 -114.68752,201.81249 l -40.375,-19.625 c -4.75,-10.4375 -18.5,-28.375 -37.625,-36.5625 -11.125,-6.6875 -28.75,-5.5 -41.625,-1.875 l -36.25,-17.5625 c 11.75,-48.5 29.75,-103.49999 53.6875,-161.24999 l 233.06252,0 c -0.5625,0.8125 -1.1875,1.5 -1.9375,2.125 -4.4375,10.8125 -9.1875,21.8125 -14.25,32.9375 z"
         id="path739"
         inkscape:connector-curvature="0"
         style="fill-rule:evenodd;stroke:#000000" />
      <path
         d="m 896.90799,392.7215 c -6.93799,14.375 -28.125,19.625 -54.18799,15.375 8.75,-15.437 14.06299,-24.312 15.18799,-29.812 0,-6.938 -15.56299,-32.813 -39.68799,-43.125 -17.25,-10.375 -50,-1.75 -56.93699,5.187 -2,2 -5,8.75 -8.875,19.063 -13.31301,-15.313 -18.56301,-31.125 -12.75,-43.063 10.68699,-21.937 54.49998,-22.625 97.93699,-1.5 43.43799,21.063 70,55.938 59.31299,77.875 z"
         id="path731"
         inkscape:connector-curvature="0"
         style="fill:#000000;fill-rule:evenodd;stroke:#000000" />
      <path
         id="path740"
         d="m 650.40953,637.70053 a 6.0045199,15.930445 0 1 0 -11.73299,-6.79202 6.0045199,15.930445 0 1 0 11.73299,6.79202 z"
         inkscape:connector-curvature="0"
         style="fill-rule:evenodd" />
      <path
         d="m 637.01718,648.10019 c -40.38881,99.74799 -70.98636,251.5119 -70.98636,251.5119"
         id="path748"
         inkscape:connector-curvature="0"
         style="fill:none;stroke:url(#linearGradient3667);stroke-width:1.875" />
      <path
         d="m 737.13669,675.00589 c 0,0 -3.45041,-10.35107 8.62588,-60.38141 17.25189,-117.31259 96.61029,-236.35019 96.61029,-236.35019 l -10.35107,-22.4274 -167.34291,360.56348 c 0,0 27.603,-29.32819 44.8548,-34.50366 17.2519,-5.1756 29.3282,-5.1756 27.60301,-6.90082 l 0,0 z"
         id="path626"
         inkscape:connector-curvature="0"
         style="fill:#ffffb2;stroke-width:1.25" />
      <path
         d="m 737.13669,675.00589 c 0,0 -3.45041,-10.35107 8.62588,-60.38141 17.25189,-117.31259 96.61029,-236.35019 96.61029,-236.35019 l -10.35107,-22.4274 -167.34291,360.56348 c 0,0 27.603,-29.32819 44.8548,-34.50366 17.2519,-5.1756 29.3282,-5.1756 27.60301,-6.90082 l 0,0 z"
         id="path606"
         inkscape:connector-curvature="0"
         style="fill:url(#radialGradient3669);stroke-width:1.25" />
      <path
         d="m 728.45978,425.1351 c -3.1286,12.42139 0.84338,15.05438 7.57519,15.58429 11.5864,0.9531 25.28461,-4.4367 55.6865,-31.98541 -61.2764,62.95102 -65.57648,77.43472 -100.54399,128.73663 17.8834,-62.51922 27.6903,-85.36651 37.2823,-112.33551 l 0,0 0,0 0,0 0,0 z"
         id="path627"
         inkscape:connector-curvature="0"
         style="fill:url(#linearGradient3671);fill-rule:evenodd;stroke-width:0.68109298" />
      <path
         d="m 851.12521,341.3568 c 5.14408,2.57209 14.4567,3.3387 18.47058,6.16971 7.87852,5.5567 14.14982,15.64129 14.40452,25.06098 0.49768,18.40111 -19.4614,-0.48458 -16.06812,-0.5755 12.34421,-0.33059 -19.37448,-32.66859 -16.80698,-30.65519 z"
         id="path658"
         inkscape:connector-curvature="0"
         style="fill:url(#radialGradient3673);fill-rule:evenodd;stroke-width:1pt" />
      <path
         d="m 802.763,277.5188 29.0173,5.80341 87.0521,-131.54523 -77.37961,1.93443 L 802.763,277.5188 z"
         id="path660"
         inkscape:connector-curvature="0"
         style="fill:url(#linearGradient3675);fill-rule:evenodd;stroke-width:1pt" />
    </g>
  </g>
</svg>
